<svg class="play-icon" xmlns="http://www.w3.org/2000/svg" height="24px" viewBox="0 -960 960 960" width="24px" fill="#e8eaed"><path d="M320-200v-560l440 280-440 280Z"/></svg>

<svg class="pause-icon" xmlns="http://www.w3.org/2000/svg" height="24px" viewBox="0 -960 960 960" width="24px" fill="#e8eaed"><path d="M560-200v-560h160v560H560Zm-320 0v-560h160v560H240Z"/></svg>

<svg class="volume-high" xmlns="http://www.w3.org/2000/svg" height="24px" viewBox="0 -960 960 960" width="24px" fill="#e8eaed"><path d="M560-131v-82q90-26 145-100t55-168q0-94-55-168T560-749v-82q124 28 202 125.5T840-481q0 127-78 224.5T560-131ZM120-360v-240h160l200-200v640L280-360H120Zm440 40v-322q47 22 73.5 66t26.5 96q0 51-26.5 94.5T560-320Z"/></svg>

<svg class="volume-low" xmlns="http://www.w3.org/2000/svg" height="24px" viewBox="0 -960 960 960" width="24px" fill="#e8eaed"><path d="M200-360v-240h160l200-200v640L360-360H200Zm440 40v-322q45 21 72.5 65t27.5 97q0 53-27.5 96T640-320Z"/></svg>

<svg class="volume-mute" xmlns="http://www.w3.org/2000/svg" height="24px" viewBox="0 -960 960 960" width="24px" fill="#e8eaed"><path d="M792-56 671-177q-25 16-53 27.5T560-131v-82q14-5 27.5-10t25.5-12L480-368v208L280-360H120v-240h128L56-792l56-56 736 736-56 56Zm-8-232-58-58q17-31 25.5-65t8.5-70q0-94-55-168T560-749v-82q124 28 202 125.5T840-481q0 53-14.5 102T784-288ZM650-422l-90-90v-130q47 22 73.5 66t26.5 96q0 15-2.5 29.5T650-422ZM480-592 376-696l104-104v208Z"/></svg>

<svg class="closed-caption" xmlns="http://www.w3.org/2000/svg" height="24px" viewBox="0 -960 960 960" width="24px" fill="#e8eaed"><path d="M200-160q-33 0-56.5-23.5T120-240v-480q0-33 23.5-56.5T200-800h560q33 0 56.5 23.5T840-720v480q0 33-23.5 56.5T760-160H200Zm80-200h120q17 0 28.5-11.5T440-400v-40h-60v20h-80v-120h80v20h60v-40q0-17-11.5-28.5T400-600H280q-17 0-28.5 11.5T240-560v160q0 17 11.5 28.5T280-360Zm280 0h120q17 0 28.5-11.5T720-400v-40h-60v20h-80v-120h80v20h60v-40q0-17-11.5-28.5T680-600H560q-17 0-28.5 11.5T520-560v160q0 17 11.5 28.5T560-360Z"/></svg>

<svg class="fullscreen" xmlns="http://www.w3.org/2000/svg" height="24px" viewBox="0 -960 960 960" width="24px" fill="#e8eaed"><path d="M120-120v-200h80v120h120v80H120Zm520 0v-80h120v-120h80v200H640ZM120-640v-200h200v80H200v120h-80Zm640 0v-120H640v-80h200v200h-80Z"/></svg>

<svg class="mini-window" xmlns="http://www.w3.org/2000/svg" height="24px" viewBox="0 -960 960 960" width="24px" fill="#e8eaed"><path d="m402-654 118 117v-89h80v226H374v-80h90L346-598l56-56Zm358 494q-50 0-85-35t-35-85q0-50 35-85t85-35q50 0 85 35t35 85q0 50-35 85t-85 35Zm-600 0q-33 0-56.5-23.5T80-240v-480q0-33 23.5-56.5T160-800h640q33 0 56.5 23.5T880-720v240h-80v-240H160v480h400v80H160Z"/></svg>

<svg class="fullscreen-exit" xmlns="http://www.w3.org/2000/svg" height="24px" viewBox="0 -960 960 960" width="24px" fill="#e8eaed"><path d="M240-120v-120H120v-80h200v200h-80Zm400 0v-200h200v80H720v120h-80ZM120-640v-80h120v-120h80v200H120Zm520 0v-200h80v120h120v80H640Z"/></svg>